<svg xmlns="http://www.w3.org/2000/svg" viewBox="0 0 60.91 55.88">
  <defs>
    <style>
      .cls-1 {
        fill: #e24329;
      }

      .cls-1, .cls-2, .cls-3 {
        fill-rule: evenodd;
      }

      .cls-2 {
        fill: #fc6d26;
      }

      .cls-3 {
        fill: #fca326;
      }

      .cls-4 {
        fill: none;
        stroke: #000;
        stroke-linecap: round;
        stroke-linejoin: round;
        stroke-width: 4px;
      }
    </style>
  </defs>
  <title>Asset 1</title>
  <g id="Layer_2" data-name="Layer 2">
    <g id="Layer_1-2" data-name="Layer 1">
      <g id="Page-1">
        <g id="press-page-v1">
          <g id="press-header">
            <polygon id="Fill-1" class="cls-1" points="30.46 53.87 30.46 53.87 40.94 21.95 19.98 21.95 30.46 53.87"/>
            <polygon id="Fill-2" class="cls-2" points="30.45 53.87 19.97 21.95 5.3 21.95 30.45 53.87"/>
            <g id="Group-99">
              <path id="Fill-3" class="cls-3" d="M5.3,22l-3.19,9.7a2.14,2.14,0,0,0,.78,2.4L30.45,53.88Z"/>
              <path id="Fill-5" class="cls-1" d="M5.3,22H20L13.66,2.74a1.09,1.09,0,0,0-2.06,0Z"/>
              <polygon id="Fill-7" class="cls-2" points="30.46 53.87 40.94 21.95 55.63 21.95 30.46 53.87"/>
              <path id="Fill-9" class="cls-3" d="M55.61,22l3.19,9.7a2.14,2.14,0,0,1-.78,2.4L30.46,53.86Z"/>
              <path id="Fill-11" class="cls-1" d="M55.62,22H40.94L47.25,2.74a1.09,1.09,0,0,1,2.06,0Z"/>
              <polygon id="Stroke-13" class="cls-4" points="30.46 53.87 30.46 53.87 40.94 21.95 19.98 21.95 30.46 53.87"/>
              <polygon id="Stroke-15" class="cls-4" points="30.45 53.87 19.97 21.95 5.3 21.95 30.45 53.87"/>
              <path id="Stroke-17" class="cls-4" d="M5.3,22l-3.19,9.7a2.14,2.14,0,0,0,.78,2.4L30.45,53.88Z"/>
              <path id="Stroke-19" class="cls-4" d="M5.3,22H20L13.66,2.74a1.09,1.09,0,0,0-2.06,0Z"/>
              <polygon id="Stroke-21" class="cls-4" points="30.46 53.87 40.94 21.95 55.63 21.95 30.46 53.87"/>
              <path id="Stroke-23" class="cls-4" d="M55.61,22l3.19,9.7a2.14,2.14,0,0,1-.78,2.4L30.46,53.86Z"/>
              <path id="Stroke-25" class="cls-4" d="M55.62,22H40.94L47.25,2.74a1.09,1.09,0,0,1,2.06,0Z"/>
            </g>
          </g>
        </g>
      </g>
    </g>
  </g>
</svg>
