<?xml version="1.0" standalone="no"?>
<!DOCTYPE svg PUBLIC "-//W3C//DTD SVG 20010904//EN"
 "http://www.w3.org/TR/2001/REC-SVG-20010904/DTD/svg10.dtd">
<svg version="1.0" xmlns="http://www.w3.org/2000/svg"
 width="900.000000pt" height="900.000000pt" viewBox="0 0 900.000000 900.000000"
 preserveAspectRatio="xMidYMid meet">
<metadata>
Created by potrace 1.10, written by Peter Selinger 2001-2011
</metadata>
<g transform="translate(0.000000,900.000000) scale(0.100000,-0.100000)"
fill="#000000" stroke="none">
<path d="M0 4510 l0 -4490 4478 2 4477 3 3 4488 2 4487 -4480 0 -4480 0 0
-4490z m7185 360 c33 -7 78 -19 100 -26 23 -8 47 -14 54 -14 32 0 199 -83 289
-144 78 -53 201 -167 274 -256 54 -65 138 -186 138 -199 0 -16 -55 -56 -297
-216 -131 -87 -261 -173 -289 -191 -28 -19 -55 -34 -60 -34 -13 0 -42 34 -90
102 -77 109 -155 174 -259 214 -41 15 -76 19 -190 19 -156 0 -195 -10 -269
-68 -50 -39 -60 -50 -88 -107 -20 -39 -23 -60 -23 -160 0 -102 3 -121 24 -165
49 -99 141 -169 350 -267 70 -32 139 -65 154 -73 16 -8 33 -15 38 -15 38 0
658 -314 689 -349 3 -3 30 -23 61 -43 30 -21 69 -50 86 -65 17 -16 42 -37 55
-49 22 -19 131 -138 146 -159 70 -97 122 -204 156 -320 10 -33 22 -73 27 -90
5 -16 14 -77 19 -135 6 -58 13 -117 16 -131 6 -31 -24 -316 -36 -339 -4 -8
-11 -34 -15 -57 -4 -24 -11 -45 -16 -49 -5 -3 -9 -12 -9 -21 0 -9 -14 -46 -32
-82 -133 -273 -387 -483 -711 -587 -170 -54 -168 -53 -251 -64 -43 -5 -82 -12
-87 -16 -17 -10 -448 -5 -527 6 -126 19 -256 45 -287 58 -11 5 -45 17 -75 26
-147 47 -381 172 -490 261 -70 57 -179 168 -229 235 -78 102 -171 245 -171
262 0 21 25 40 102 82 37 20 119 67 183 106 64 38 118 70 122 70 3 0 54 29
113 65 59 36 111 65 115 65 3 0 13 7 21 15 29 28 33 25 124 -100 106 -145 248
-268 370 -318 94 -40 265 -77 354 -77 57 0 223 27 248 41 10 5 23 9 29 9 12 0
100 40 109 50 3 3 21 16 40 29 83 55 130 156 130 281 0 205 -95 305 -450 468
-133 61 -202 92 -206 92 -2 0 -34 14 -71 31 -38 17 -102 47 -143 66 -154 71
-278 137 -375 201 -38 25 -72 48 -75 52 -3 3 -27 23 -55 45 -58 45 -205 193
-205 205 0 5 -6 15 -13 22 -41 43 -130 210 -159 298 -9 25 -21 61 -27 80 -31
92 -33 560 -2 617 6 12 11 30 11 40 0 10 7 31 15 47 8 15 15 32 15 37 0 20 67
149 111 214 52 75 153 186 207 226 19 13 39 29 45 34 7 6 30 22 52 35 22 13
42 27 45 31 10 12 155 77 230 102 68 23 165 49 230 61 51 9 526 -2 585 -14z
m-2045 -40 c19 -19 20 -33 20 -373 0 -261 -3 -356 -12 -365 -9 -9 -153 -12
-585 -12 l-573 0 -2 -1657 -3 -1658 -425 0 -425 0 -3 1658 -2 1657 -574 0
c-496 0 -575 2 -586 15 -18 22 -12 701 7 733 l13 22 1565 0 c1552 0 1565 0
1585 -20z"/>
</g>
</svg>
