<svg xmlns="http://www.w3.org/2000/svg" viewBox="0 0 824.5 171.28">
  <title>Asset 1</title>
  <g id="Layer_2" data-name="Layer 2">
    <g id="Layer_1-2" data-name="Layer 1">
      <path d="M412.9.08C106.89-.09,26.13,0,6.46.79H6.22A9.31,9.31,0,0,1,4.6,1,17.38,17.38,0,0,1,2,1.34c-.68,0-1.35.06-2,0V143.17a5.78,5.78,0,0,0,3.5,5.31,22.66,22.66,0,0,0,6.2,1.4,67.79,67.79,0,0,1,9.8,1.4c6.9,1.5,15.8,3,34.5,6,19,3,24.7,3.8,33,4.6,4.7.5,10.6,1.4,13,1.9a49.36,49.36,0,0,0,9.5,1.1,114.15,114.15,0,0,1,14,1.5,120,120,0,0,0,15,1.5c3.3,0,12.5.7,20.5,1.6,21.3,2.4,99.7,2.4,124,0,27.4-2.6,51.4-5.8,69.3-9.2,4.2-.7,11.4-2.1,16-2.9s10.2-2.1,12.7-2.7,6.3-1.4,8.5-1.8,8.3-1.8,13.5-3,11.1-2.5,13-3,5.8-1.3,8.5-2,7.6-1.8,10.8-2.6l24-6c7.4-1.9,15.6-3.9,23.5-5.8,3.1-.8,7.7-1.9,10.2-2.6s6.3-1.5,8.5-1.9,5.8-1.3,8-1.8c8.6-2.3,14.2-3.6,18.5-4.3,2.5-.4,6.5-1.2,9-1.8s7.9-1.8,12-2.6,10-2,13-2.7,7.8-1.5,10.5-1.9,7.5-1.3,10.5-1.9c5.1-1,10.7-1.9,34.2-5.5,19.5-3.1,31.4-4.6,35.4-4.6a69.91,69.91,0,0,0,9.5-1c3-.6,10.8-1.5,17.4-2s17-1.3,23-1.9c22.6-2.1,51.1-3.5,86-4l36-.6V.38Z"/>
    </g>
  </g>
</svg>
